<?xml version="1.0" encoding="utf-8"?>
<!-- Generator: Adobe Illustrator 15.1.0, SVG Export Plug-In . SVG Version: 6.00 Build 0)  -->
<!DOCTYPE svg PUBLIC "-//W3C//DTD SVG 1.1//EN" "http://www.w3.org/Graphics/SVG/1.1/DTD/svg11.dtd">
<svg version="1.1" id="Ebene_1" xmlns="http://www.w3.org/2000/svg" xmlns:xlink="http://www.w3.org/1999/xlink" x="0px" y="0px"
	 width="410px" height="150px" viewBox="72.5 0.75 410 150" enable-background="new 72.5 0.75 410 150" xml:space="preserve">
<g>
	<g id="ARC_16_">
	</g>
</g>
<g>
	<g>
		<path fill="#909194" d="M248.913,53.222v-3.728l13.458-0.021v11.789c-2.066,1.646-4.197,2.886-6.393,3.717
			c-2.196,0.83-4.45,1.246-6.761,1.246c-3.121,0-5.957-0.668-8.506-2.005c-2.55-1.336-4.475-3.269-5.775-5.797
			c-1.3-2.528-1.95-5.354-1.95-8.474c0-3.092,0.646-5.978,1.939-8.658s3.153-4.67,5.581-5.971c2.427-1.3,5.223-1.95,8.387-1.95
			c2.297,0,4.374,0.372,6.23,1.116c1.856,0.744,3.312,1.781,4.367,3.109c1.055,1.33,1.856,3.063,2.406,5.202l-3.792,1.04
			c-0.477-1.618-1.069-2.89-1.777-3.814c-0.708-0.924-1.719-1.665-3.034-2.222c-1.315-0.556-2.774-0.834-4.378-0.834
			c-1.921,0-3.583,0.293-4.984,0.878c-1.401,0.585-2.532,1.354-3.392,2.308c-0.86,0.954-1.528,2.001-2.004,3.143
			c-0.81,1.965-1.214,4.096-1.214,6.393c0,2.832,0.488,5.202,1.463,7.108c0.975,1.907,2.395,3.323,4.259,4.248
			c1.863,0.925,3.843,1.387,5.938,1.387c1.821,0,3.598-0.35,5.332-1.051c1.733-0.7,3.048-1.448,3.944-2.243v-5.916H248.913
			L248.913,53.222z"/>
		<path fill="#909194" d="M267.984,65.683V33.912h3.901v31.771H267.984z"/>
		<path fill="#909194" d="M276.479,54.175c0-4.262,1.185-7.419,3.554-9.471c1.979-1.704,4.392-2.557,7.238-2.557
			c3.164,0,5.75,1.036,7.758,3.109c2.008,2.073,3.012,4.938,3.012,8.593c0,2.962-0.444,5.292-1.333,6.989
			c-0.889,1.698-2.182,3.017-3.879,3.955c-1.698,0.939-3.551,1.409-5.559,1.409c-3.222,0-5.826-1.033-7.813-3.1
			C277.472,61.038,276.479,58.062,276.479,54.175z M280.489,54.175c0,2.947,0.643,5.154,1.929,6.621
			c1.286,1.467,2.904,2.199,4.854,2.199c1.936,0,3.546-0.736,4.833-2.21c1.286-1.474,1.929-3.721,1.929-6.74
			c0-2.846-0.646-5.002-1.939-6.469c-1.293-1.467-2.9-2.2-4.822-2.2c-1.951,0-3.569,0.73-4.854,2.189
			C281.131,49.024,280.489,51.228,280.489,54.175z"/>
		<path fill="#909194" d="M306.213,65.683h-3.619V33.912h3.901v11.334c1.646-2.065,3.75-3.099,6.307-3.099
			c1.416,0,2.755,0.285,4.021,0.855c1.264,0.571,2.304,1.373,3.121,2.406c0.815,1.033,1.456,2.279,1.918,3.738
			s0.692,3.02,0.692,4.681c0,3.944-0.975,6.993-2.926,9.146c-1.95,2.153-4.291,3.229-7.021,3.229c-2.717,0-4.848-1.135-6.394-3.403
			L306.213,65.683L306.213,65.683z M306.17,54.002c0,2.76,0.375,4.753,1.126,5.981c1.229,2.008,2.89,3.012,4.985,3.012
			c1.705,0,3.178-0.74,4.421-2.221c1.242-1.481,1.864-3.688,1.864-6.621c0-3.005-0.597-5.223-1.788-6.653
			c-1.192-1.43-2.634-2.146-4.323-2.146c-1.705,0-3.179,0.74-4.421,2.222C306.79,49.057,306.17,51.199,306.17,54.002z"/>
		<path fill="#909194" d="M342.317,62.844c-1.445,1.229-2.835,2.095-4.173,2.601c-1.337,0.506-2.771,0.759-4.302,0.759
			c-2.527,0-4.472-0.618-5.83-1.854c-1.357-1.236-2.037-2.813-2.037-4.735c0-1.127,0.257-2.156,0.771-3.088
			c0.513-0.932,1.185-1.68,2.016-2.243s1.767-0.989,2.807-1.278c0.766-0.202,1.921-0.397,3.467-0.585
			c3.149-0.376,5.469-0.824,6.957-1.344c0.015-0.534,0.021-0.874,0.021-1.019c0-1.59-0.369-2.709-1.104-3.359
			c-0.997-0.881-2.479-1.322-4.442-1.322c-1.835,0-3.188,0.322-4.063,0.965c-0.875,0.643-1.521,1.78-1.939,3.413l-3.813-0.521
			c0.347-1.632,0.917-2.95,1.712-3.955c0.794-1.004,1.942-1.776,3.445-2.318c1.504-0.542,3.244-0.813,5.224-0.813
			c1.964,0,3.561,0.231,4.789,0.693c1.228,0.463,2.131,1.044,2.709,1.744c0.578,0.701,0.981,1.586,1.214,2.655
			c0.13,0.664,0.195,1.863,0.195,3.598v5.201c0,3.626,0.083,5.92,0.25,6.881c0.166,0.961,0.494,1.882,0.985,2.763h-4.074
			C342.693,64.874,342.433,63.927,342.317,62.844z M341.992,54.132c-1.416,0.578-3.54,1.069-6.371,1.474
			c-1.604,0.231-2.738,0.491-3.402,0.78c-0.665,0.289-1.178,0.712-1.539,1.268c-0.36,0.557-0.542,1.174-0.542,1.853
			c0,1.041,0.395,1.907,1.182,2.601c0.787,0.693,1.938,1.041,3.457,1.041c1.502,0,2.839-0.329,4.009-0.986
			c1.17-0.657,2.029-1.557,2.579-2.698c0.419-0.881,0.628-2.182,0.628-3.901V54.132z"/>
		<path fill="#909194" d="M351.896,65.683V33.912h3.9v31.771H351.896z"/>
	</g>
	<g id="ARC_1_">
		<path fill="#00A9EE" d="M100.257,99.389c0,0.53,0.43,0.961,0.959,0.961c0.39,0,0.74-0.233,0.889-0.596
			c4.67-11.331,10.395-22.199,17.097-32.461c0.035-0.057,0.077-0.107,0.124-0.153c0.376-0.376,0.983-0.376,1.358,0l2.528,2.527
			c0.213,0.213,0.313,0.514,0.272,0.813c-1.375,9.763-1.988,19.616-1.834,29.475c0.003,0.134,0.033,0.271,0.092,0.393
			c0.06,0.129,0.149,0.244,0.26,0.334c0.075,0.063,0.161,0.112,0.249,0.148c0.058,0.023,0.117,0.04,0.178,0.052
			c0.097,0.021,0.196,0.022,0.295,0.013c0.128-0.017,0.252-0.058,0.365-0.121c0.073-0.043,0.143-0.097,0.203-0.152
			c2.041-2.053,4.29-3.9,6.668-5.558c3.807-2.648,7.911-4.79,12.137-6.572c2.992-1.261,6.058-2.347,9.167-3.295
			c4.437-1.354,8.962-2.429,13.481-3.307c6.335-1.229,12.72-2.085,19.126-2.725c6.86-0.685,13.749-1.116,20.644-1.414
			c9.797-0.422,19.613-0.574,29.379-0.648c9.597-0.074,19.189-0.07,28.78-0.064c11.94,0.01,23.878,0.027,35.818,0.029
			c14.166,0.003,28.334-0.01,42.503-0.014c12.015-0.003,24.03,0,36.047,0.021c0.172,0,0.34,0.047,0.489,0.135
			c0.455,0.271,0.604,0.861,0.334,1.317l-1.479,2.486c-0.173,0.288-0.482,0.467-0.815,0.47c-22.784,0.212-45.588,0.523-68.38,0.966
			c-11.397,0.221-22.792,0.475-34.178,0.767c-11.388,0.293-22.771,0.621-34.148,1.029c-14.755,0.529-29.512,1.138-44.203,2.397
			c-7.962,0.682-16,1.576-23.891,2.963c-7.94,1.395-15.751,3.272-23.144,6.229c-3.892,1.56-7.712,3.448-11.228,5.748
			c-3.515,2.298-6.715,4.996-9.444,8.139c-1.48,1.7-2.817,3.527-3.981,5.446c-1.998,3.29-3.516,6.911-4.539,10.636
			c-0.043,0.161-0.129,0.311-0.247,0.428c-0.375,0.375-0.984,0.375-1.358,0l-2.734-2.734c-0.188-0.188-0.292-0.446-0.281-0.713
			l0.991-27.256c0.019-0.528-0.396-0.978-0.925-0.994c-0.359-0.014-0.696,0.174-0.872,0.487
			c-6.522,11.561-11.701,23.83-15.436,36.567c-0.045,0.154-0.127,0.295-0.243,0.409c-0.374,0.375-0.982,0.375-1.358,0l-1.358-1.357
			c-0.18-0.182-0.282-0.426-0.282-0.679V89.529c0-0.53-0.43-0.961-0.96-0.961c-0.148,0-0.294,0.035-0.427,0.1l-1.557,0.773
			c-0.134,0.064-0.28,0.1-0.427,0.1c-0.53,0-0.96-0.431-0.96-0.961v-3.969c0-0.364,0.208-0.697,0.534-0.861l8.333-4.13
			c0.133-0.065,0.278-0.1,0.427-0.1c0.53,0,0.962,0.43,0.962,0.96L100.257,99.389L100.257,99.389z"/>
	</g>
	<g>
		<path fill="#C73E27" d="M149.773,27.137h5.294v23.115c0,4.021-0.455,7.214-1.364,9.579c-0.91,2.365-2.552,4.289-4.926,5.771
			c-2.375,1.483-5.49,2.225-9.347,2.225c-3.748,0-6.813-0.646-9.197-1.938c-2.383-1.292-4.084-3.161-5.103-5.608
			c-1.019-2.447-1.528-5.79-1.528-10.029V27.137h5.294v23.087c0,3.476,0.323,6.036,0.969,7.683c0.646,1.646,1.755,2.915,3.33,3.807
			c1.573,0.892,3.497,1.337,5.771,1.337c3.893,0,6.668-0.882,8.324-2.646c1.655-1.765,2.483-5.158,2.483-10.18V27.137
			L149.773,27.137z"/>
		<path fill="#C73E27" d="M162.08,54.291l4.994-0.437c0.236,2.001,0.787,3.643,1.651,4.926c0.864,1.282,2.206,2.319,4.025,3.111
			c1.819,0.791,3.866,1.187,6.14,1.187c2.02,0,3.802-0.3,5.349-0.9c1.547-0.6,2.697-1.424,3.452-2.47s1.133-2.188,1.133-3.425
			c0-1.256-0.364-2.352-1.092-3.289s-1.929-1.723-3.602-2.36c-1.074-0.418-3.448-1.068-7.123-1.951
			c-3.675-0.882-6.25-1.715-7.723-2.497c-1.911-1-3.334-2.242-4.271-3.725s-1.405-3.143-1.405-4.98c0-2.02,0.573-3.907,1.719-5.663
			c1.146-1.756,2.82-3.088,5.021-3.998c2.201-0.91,4.648-1.365,7.341-1.365c2.965,0,5.581,0.478,7.846,1.433
			c2.265,0.955,4.007,2.36,5.226,4.216c1.219,1.856,1.874,3.957,1.965,6.305l-5.076,0.382c-0.273-2.528-1.197-4.438-2.77-5.731
			c-1.574-1.291-3.898-1.938-6.973-1.938c-3.202,0-5.536,0.587-7,1.761c-1.464,1.173-2.197,2.588-2.197,4.243
			c0,1.438,0.519,2.62,1.556,3.548c1.019,0.928,3.679,1.879,7.982,2.852c4.302,0.974,7.254,1.824,8.855,2.552
			c2.329,1.074,4.048,2.434,5.158,4.08c1.109,1.646,1.665,3.544,1.665,5.69c0,2.128-0.61,4.134-1.828,6.018
			c-1.219,1.883-2.971,3.348-5.253,4.394c-2.284,1.046-4.854,1.569-7.709,1.569c-3.621,0-6.654-0.528-9.101-1.583
			c-2.447-1.055-4.367-2.643-5.758-4.763C162.886,59.362,162.153,56.965,162.08,54.291z"/>
		<path fill="#C73E27" d="M211.338,67.145V31.858h-13.181v-4.721h31.711v4.721h-13.236v35.286L211.338,67.145L211.338,67.145z"/>
	</g>
	<g>
		<path fill="#909194" d="M370.689,33.549c1.186,0,2.344,0.304,3.474,0.913c1.13,0.608,2.01,1.479,2.642,2.612
			c0.63,1.133,0.945,2.314,0.945,3.544c0,1.218-0.311,2.389-0.932,3.512c-0.622,1.124-1.492,1.996-2.613,2.617
			c-1.121,0.622-2.292,0.933-3.516,0.933c-1.225,0-2.396-0.311-3.517-0.933c-1.121-0.621-1.993-1.493-2.618-2.617
			c-0.624-1.123-0.936-2.294-0.936-3.512c0-1.229,0.315-2.411,0.95-3.544c0.634-1.133,1.516-2.004,2.646-2.612
			C368.345,33.853,369.503,33.549,370.689,33.549z M370.689,34.719c-0.993,0-1.959,0.255-2.898,0.764
			c-0.939,0.509-1.675,1.236-2.205,2.182c-0.531,0.946-0.796,1.931-0.796,2.954c0,1.019,0.26,1.993,0.782,2.927
			c0.521,0.934,1.25,1.661,2.187,2.182c0.938,0.521,1.914,0.782,2.932,0.782c1.017,0,1.994-0.261,2.931-0.782
			c0.936-0.521,1.664-1.248,2.182-2.182c0.519-0.934,0.777-1.908,0.777-2.927c0-1.023-0.264-2.008-0.792-2.954
			c-0.527-0.945-1.263-1.673-2.205-2.182C372.639,34.974,371.675,34.719,370.689,34.719z M367.589,44.523V36.92h2.613
			c0.893,0,1.539,0.07,1.938,0.211c0.399,0.14,0.719,0.385,0.956,0.734c0.237,0.35,0.355,0.722,0.355,1.114
			c0,0.556-0.198,1.04-0.594,1.452c-0.397,0.412-0.924,0.643-1.578,0.692c0.269,0.112,0.483,0.247,0.646,0.403
			c0.307,0.299,0.682,0.802,1.124,1.507l0.927,1.489h-1.498l-0.674-1.198c-0.53-0.942-0.958-1.533-1.282-1.771
			c-0.226-0.175-0.554-0.262-0.983-0.262h-0.721v3.23h-1.229V44.523z M368.816,40.244h1.488c0.711,0,1.197-0.106,1.456-0.318
			c0.259-0.212,0.39-0.493,0.39-0.843c0-0.225-0.063-0.426-0.188-0.604s-0.298-0.311-0.52-0.397
			c-0.223-0.088-0.632-0.131-1.231-0.131h-1.396L368.816,40.244L368.816,40.244z"/>
	</g>
</g>
<g>
	<path fill="#909194" d="M204.992,102.5V91.047h1.516V102.5H204.992z"/>
	<path fill="#909194" d="M209,102.5v-8.297h1.266v1.18c0.609-0.911,1.489-1.367,2.641-1.367c0.5,0,0.959,0.09,1.379,0.27
		c0.419,0.18,0.733,0.416,0.941,0.707c0.208,0.292,0.354,0.638,0.438,1.039c0.052,0.261,0.078,0.716,0.078,1.367v5.102h-1.406
		v-5.047c0-0.573-0.055-1.001-0.164-1.285c-0.109-0.284-0.304-0.511-0.582-0.68c-0.279-0.169-0.605-0.254-0.98-0.254
		c-0.599,0-1.116,0.19-1.551,0.57c-0.435,0.38-0.652,1.102-0.652,2.164v4.531H209z"/>
	<path fill="#909194" d="M217.898,102.5v-8.297h1.266v1.18c0.609-0.911,1.489-1.367,2.641-1.367c0.5,0,0.959,0.09,1.379,0.27
		c0.419,0.18,0.733,0.416,0.941,0.707c0.208,0.292,0.354,0.638,0.438,1.039c0.052,0.261,0.078,0.716,0.078,1.367v5.102h-1.406
		v-5.047c0-0.573-0.055-1.001-0.164-1.285c-0.109-0.284-0.304-0.511-0.582-0.68c-0.279-0.169-0.605-0.254-0.98-0.254
		c-0.599,0-1.116,0.19-1.551,0.57c-0.435,0.38-0.652,1.102-0.652,2.164v4.531H217.898z"/>
	<path fill="#909194" d="M226.273,98.352c0-1.536,0.427-2.675,1.281-3.414c0.713-0.614,1.583-0.922,2.609-0.922
		c1.141,0,2.073,0.374,2.797,1.121c0.724,0.747,1.086,1.78,1.086,3.098c0,1.067-0.16,1.907-0.48,2.52
		c-0.32,0.613-0.787,1.087-1.398,1.426c-0.612,0.339-1.28,0.508-2.004,0.508c-1.162,0-2.101-0.372-2.816-1.117
		C226.631,100.825,226.273,99.753,226.273,98.352z M227.719,98.352c0,1.063,0.231,1.858,0.695,2.387
		c0.463,0.528,1.047,0.793,1.75,0.793c0.698,0,1.278-0.266,1.742-0.797c0.463-0.531,0.695-1.341,0.695-2.43
		c0-1.026-0.233-1.804-0.699-2.332c-0.466-0.528-1.046-0.793-1.738-0.793c-0.703,0-1.287,0.263-1.75,0.789
		C227.95,96.495,227.719,97.289,227.719,98.352z"/>
	<path fill="#909194" d="M238,102.5l-3.156-8.297h1.484l1.781,4.969c0.192,0.536,0.37,1.094,0.531,1.672
		c0.125-0.438,0.299-0.964,0.523-1.578l1.844-5.063h1.445l-3.141,8.297H238z"/>
	<path fill="#909194" d="M249.109,101.477c-0.521,0.442-1.022,0.755-1.504,0.938s-0.999,0.273-1.551,0.273
		c-0.912,0-1.612-0.223-2.102-0.668c-0.49-0.445-0.734-1.015-0.734-1.707c0-0.406,0.092-0.777,0.277-1.113s0.427-0.605,0.727-0.809
		c0.299-0.203,0.637-0.356,1.012-0.461c0.276-0.073,0.692-0.144,1.25-0.211c1.135-0.136,1.971-0.297,2.508-0.484
		c0.005-0.192,0.008-0.315,0.008-0.367c0-0.573-0.133-0.977-0.398-1.211c-0.359-0.317-0.894-0.477-1.602-0.477
		c-0.662,0-1.15,0.116-1.465,0.348c-0.315,0.231-0.548,0.642-0.699,1.23l-1.375-0.188c0.125-0.589,0.331-1.063,0.617-1.426
		c0.286-0.362,0.7-0.641,1.242-0.836s1.169-0.293,1.883-0.293c0.708,0,1.284,0.083,1.727,0.25c0.442,0.167,0.768,0.376,0.977,0.629
		c0.208,0.253,0.354,0.572,0.438,0.957c0.047,0.239,0.07,0.672,0.07,1.297v1.875c0,1.308,0.03,2.134,0.09,2.48
		c0.06,0.347,0.178,0.679,0.355,0.996h-1.469C249.245,102.208,249.151,101.867,249.109,101.477z M248.992,98.336
		c-0.511,0.208-1.276,0.386-2.297,0.531c-0.578,0.083-0.987,0.177-1.227,0.281c-0.24,0.104-0.425,0.257-0.555,0.457
		c-0.13,0.2-0.195,0.423-0.195,0.668c0,0.375,0.142,0.688,0.426,0.938s0.699,0.375,1.246,0.375c0.542,0,1.023-0.118,1.445-0.355
		s0.731-0.562,0.93-0.973c0.151-0.317,0.227-0.786,0.227-1.406V98.336z"/>
	<path fill="#909194" d="M255.664,101.242l0.203,1.242c-0.396,0.083-0.75,0.125-1.063,0.125c-0.511,0-0.906-0.081-1.188-0.242
		c-0.282-0.161-0.479-0.374-0.594-0.637c-0.115-0.263-0.172-0.816-0.172-1.66v-4.773h-1.031v-1.094h1.031v-2.055l1.398-0.844v2.898
		h1.414v1.094h-1.414v4.852c0,0.401,0.024,0.659,0.074,0.773c0.049,0.114,0.13,0.206,0.242,0.273s0.272,0.102,0.48,0.102
		C255.203,101.297,255.409,101.278,255.664,101.242z"/>
	<path fill="#909194" d="M257.047,92.664v-1.617h1.406v1.617H257.047z M257.047,102.5v-8.297h1.406v8.297H257.047z"/>
	<path fill="#909194" d="M260.07,98.352c0-1.536,0.427-2.675,1.281-3.414c0.713-0.614,1.583-0.922,2.609-0.922
		c1.141,0,2.073,0.374,2.797,1.121c0.724,0.747,1.086,1.78,1.086,3.098c0,1.067-0.16,1.907-0.48,2.52
		c-0.32,0.613-0.787,1.087-1.398,1.426c-0.612,0.339-1.28,0.508-2.004,0.508c-1.162,0-2.101-0.372-2.816-1.117
		C260.428,100.825,260.07,99.753,260.07,98.352z M261.516,98.352c0,1.063,0.231,1.858,0.695,2.387
		c0.463,0.528,1.047,0.793,1.75,0.793c0.698,0,1.278-0.266,1.742-0.797c0.463-0.531,0.695-1.341,0.695-2.43
		c0-1.026-0.233-1.804-0.699-2.332c-0.466-0.528-1.046-0.793-1.738-0.793c-0.703,0-1.287,0.263-1.75,0.789
		C261.747,96.495,261.516,97.289,261.516,98.352z"/>
	<path fill="#909194" d="M269.492,102.5v-8.297h1.266v1.18c0.609-0.911,1.489-1.367,2.641-1.367c0.5,0,0.959,0.09,1.379,0.27
		c0.419,0.18,0.733,0.416,0.941,0.707c0.208,0.292,0.354,0.638,0.438,1.039c0.052,0.261,0.078,0.716,0.078,1.367v5.102h-1.406
		v-5.047c0-0.573-0.055-1.001-0.164-1.285s-0.304-0.511-0.582-0.68c-0.279-0.169-0.605-0.254-0.98-0.254
		c-0.599,0-1.116,0.19-1.551,0.57c-0.435,0.38-0.652,1.102-0.652,2.164v4.531H269.492z"/>
	<path fill="#909194" d="M292.164,102.5V91.047h1.516V102.5H292.164z"/>
	<path fill="#909194" d="M296.172,102.5v-8.297h1.266v1.18c0.609-0.911,1.489-1.367,2.641-1.367c0.5,0,0.959,0.09,1.379,0.27
		c0.419,0.18,0.733,0.416,0.941,0.707c0.208,0.292,0.354,0.638,0.438,1.039c0.052,0.261,0.078,0.716,0.078,1.367v5.102h-1.406
		v-5.047c0-0.573-0.055-1.001-0.164-1.285c-0.109-0.284-0.304-0.511-0.582-0.68c-0.279-0.169-0.605-0.254-0.98-0.254
		c-0.599,0-1.116,0.19-1.551,0.57c-0.435,0.38-0.652,1.102-0.652,2.164v4.531H296.172z"/>
	<path fill="#909194" d="M305.406,102.5v-7.203h-1.242v-1.094h1.242V93.32c0-0.557,0.049-0.971,0.148-1.242
		c0.135-0.364,0.374-0.66,0.714-0.887c0.342-0.227,0.819-0.34,1.435-0.34c0.396,0,0.833,0.047,1.313,0.141l-0.211,1.227
		c-0.292-0.052-0.567-0.078-0.828-0.078c-0.427,0-0.729,0.091-0.905,0.273c-0.178,0.183-0.267,0.523-0.267,1.023v0.766h1.617v1.094
		h-1.617v7.203H305.406z"/>
	<path fill="#909194" d="M308.992,98.352c0-1.536,0.427-2.675,1.281-3.414c0.713-0.614,1.583-0.922,2.608-0.922
		c1.142,0,2.073,0.374,2.797,1.121c0.725,0.747,1.086,1.78,1.086,3.098c0,1.067-0.159,1.907-0.479,2.52
		c-0.32,0.613-0.787,1.087-1.398,1.426c-0.611,0.339-1.279,0.508-2.004,0.508c-1.162,0-2.101-0.372-2.815-1.117
		C309.35,100.825,308.992,99.753,308.992,98.352z M310.438,98.352c0,1.063,0.231,1.858,0.695,2.387
		c0.463,0.528,1.047,0.793,1.75,0.793c0.698,0,1.278-0.266,1.742-0.797c0.463-0.531,0.695-1.341,0.695-2.43
		c0-1.026-0.233-1.804-0.699-2.332c-0.466-0.528-1.046-0.793-1.738-0.793c-0.703,0-1.287,0.263-1.75,0.789
		C310.669,96.495,310.438,97.289,310.438,98.352z"/>
	<path fill="#909194" d="M318.398,102.5v-8.297h1.266v1.258c0.323-0.588,0.621-0.977,0.895-1.164
		c0.274-0.187,0.574-0.281,0.902-0.281c0.474,0,0.956,0.151,1.445,0.453l-0.484,1.305c-0.344-0.203-0.688-0.305-1.031-0.305
		c-0.308,0-0.583,0.093-0.828,0.277c-0.244,0.185-0.419,0.441-0.522,0.77c-0.156,0.5-0.234,1.047-0.234,1.641v4.344L318.398,102.5
		L318.398,102.5z"/>
	<path fill="#909194" d="M323.742,102.5v-8.297H325v1.164c0.26-0.406,0.606-0.733,1.039-0.98c0.432-0.247,0.924-0.371,1.477-0.371
		c0.614,0,1.118,0.128,1.513,0.383c0.393,0.255,0.67,0.612,0.832,1.07c0.655-0.969,1.51-1.453,2.563-1.453
		c0.823,0,1.456,0.228,1.898,0.684c0.441,0.456,0.664,1.157,0.664,2.105v5.695h-1.398v-5.227c0-0.563-0.046-0.968-0.137-1.215
		s-0.257-0.446-0.496-0.598c-0.24-0.151-0.521-0.227-0.844-0.227c-0.583,0-1.068,0.194-1.453,0.582
		c-0.386,0.388-0.578,1.009-0.578,1.863v4.82h-1.406v-5.391c0-0.625-0.115-1.094-0.344-1.406c-0.229-0.313-0.604-0.469-1.125-0.469
		c-0.396,0-0.762,0.104-1.098,0.313c-0.337,0.209-0.58,0.513-0.73,0.914c-0.151,0.401-0.227,0.979-0.227,1.734v4.305h-1.407V102.5z"
		/>
	<path fill="#909194" d="M342.484,101.477c-0.521,0.442-1.022,0.755-1.504,0.938c-0.482,0.183-0.999,0.273-1.552,0.273
		c-0.912,0-1.611-0.223-2.102-0.668s-0.734-1.015-0.734-1.707c0-0.406,0.092-0.777,0.277-1.113c0.185-0.336,0.427-0.605,0.727-0.809
		c0.3-0.203,0.638-0.356,1.013-0.461c0.275-0.073,0.691-0.144,1.25-0.211c1.135-0.136,1.971-0.297,2.508-0.484
		c0.005-0.192,0.008-0.315,0.008-0.367c0-0.573-0.133-0.977-0.398-1.211c-0.358-0.317-0.894-0.477-1.602-0.477
		c-0.662,0-1.15,0.116-1.465,0.348c-0.315,0.231-0.548,0.642-0.699,1.23l-1.375-0.188c0.125-0.589,0.331-1.063,0.617-1.426
		c0.286-0.362,0.7-0.641,1.242-0.836s1.169-0.293,1.883-0.293c0.708,0,1.284,0.083,1.727,0.25s0.769,0.376,0.978,0.629
		c0.208,0.253,0.354,0.572,0.438,0.957c0.047,0.239,0.07,0.672,0.07,1.297v1.875c0,1.308,0.03,2.134,0.09,2.48
		c0.061,0.347,0.178,0.679,0.355,0.996h-1.47C342.62,102.208,342.526,101.867,342.484,101.477z M342.367,98.336
		c-0.511,0.208-1.276,0.386-2.297,0.531c-0.578,0.083-0.987,0.177-1.228,0.281c-0.239,0.104-0.425,0.257-0.555,0.457
		c-0.13,0.2-0.195,0.423-0.195,0.668c0,0.375,0.143,0.688,0.426,0.938c0.284,0.25,0.699,0.375,1.246,0.375
		c0.542,0,1.023-0.118,1.445-0.355s0.731-0.562,0.93-0.973c0.151-0.317,0.228-0.786,0.228-1.406V98.336z"/>
	<path fill="#909194" d="M349.039,101.242l0.203,1.242c-0.396,0.083-0.75,0.125-1.063,0.125c-0.511,0-0.905-0.081-1.188-0.242
		c-0.282-0.161-0.479-0.374-0.594-0.637c-0.115-0.263-0.173-0.816-0.173-1.66v-4.773h-1.03v-1.094h1.03v-2.055l1.398-0.844v2.898
		h1.414v1.094h-1.414v4.852c0,0.401,0.024,0.659,0.074,0.773c0.049,0.114,0.13,0.206,0.242,0.273
		c0.111,0.067,0.271,0.102,0.479,0.102C348.578,101.297,348.784,101.278,349.039,101.242z"/>
	<path fill="#909194" d="M350.422,92.664v-1.617h1.406v1.617H350.422z M350.422,102.5v-8.297h1.406v8.297H350.422z"/>
	<path fill="#909194" d="M353.445,98.352c0-1.536,0.427-2.675,1.28-3.414c0.714-0.614,1.583-0.922,2.609-0.922
		c1.141,0,2.073,0.374,2.797,1.121c0.725,0.747,1.086,1.78,1.086,3.098c0,1.067-0.16,1.907-0.479,2.52
		c-0.32,0.613-0.787,1.087-1.398,1.426c-0.612,0.339-1.28,0.508-2.004,0.508c-1.162,0-2.101-0.372-2.816-1.117
		C353.803,100.825,353.445,99.753,353.445,98.352z M354.891,98.352c0,1.063,0.231,1.858,0.695,2.387
		c0.463,0.528,1.047,0.793,1.75,0.793c0.698,0,1.278-0.266,1.742-0.797c0.463-0.531,0.695-1.341,0.695-2.43
		c0-1.026-0.233-1.804-0.699-2.332c-0.466-0.528-1.046-0.793-1.738-0.793c-0.703,0-1.287,0.263-1.75,0.789
		C355.122,96.495,354.891,97.289,354.891,98.352z"/>
	<path fill="#909194" d="M362.867,102.5v-8.297h1.266v1.18c0.609-0.911,1.489-1.367,2.642-1.367c0.5,0,0.959,0.09,1.379,0.27
		c0.419,0.18,0.732,0.416,0.94,0.707c0.208,0.292,0.354,0.638,0.438,1.039c0.052,0.261,0.078,0.716,0.078,1.367v5.102h-1.406v-5.047
		c0-0.573-0.055-1.001-0.164-1.285s-0.304-0.511-0.582-0.68c-0.279-0.169-0.605-0.254-0.98-0.254c-0.599,0-1.115,0.19-1.551,0.57
		c-0.435,0.38-0.651,1.102-0.651,2.164v4.531H362.867z"/>
	<path fill="#909194" d="M387.906,102.5V92.398h-3.773v-1.352h9.078v1.352h-3.789V102.5H387.906z"/>
	<path fill="#909194" d="M398.492,99.828l1.453,0.18c-0.229,0.849-0.654,1.508-1.273,1.977c-0.62,0.469-1.412,0.703-2.375,0.703
		c-1.214,0-2.176-0.374-2.887-1.121s-1.066-1.796-1.066-3.145c0-1.396,0.359-2.479,1.078-3.25s1.651-1.156,2.797-1.156
		c1.109,0,2.017,0.378,2.719,1.133c0.703,0.755,1.056,1.817,1.056,3.188c0,0.083-0.003,0.208-0.008,0.375h-6.188
		c0.052,0.911,0.311,1.609,0.773,2.094c0.463,0.484,1.042,0.727,1.733,0.727c0.517,0,0.956-0.136,1.32-0.406
		C397.989,100.854,398.278,100.422,398.492,99.828z M393.875,97.555h4.633c-0.063-0.698-0.24-1.222-0.531-1.57
		c-0.447-0.542-1.028-0.813-1.741-0.813c-0.646,0-1.189,0.216-1.629,0.648C394.165,96.253,393.922,96.831,393.875,97.555z"/>
	<path fill="#909194" d="M407.125,99.461l1.383,0.18c-0.15,0.953-0.538,1.699-1.16,2.238c-0.623,0.539-1.387,0.809-2.293,0.809
		c-1.136,0-2.048-0.371-2.737-1.113c-0.69-0.742-1.035-1.806-1.035-3.191c0-0.896,0.147-1.68,0.444-2.352
		c0.298-0.672,0.749-1.176,1.355-1.512c0.605-0.336,1.267-0.504,1.98-0.504c0.9,0,1.638,0.228,2.211,0.684
		c0.572,0.456,0.939,1.103,1.102,1.941l-1.367,0.211c-0.13-0.558-0.36-0.977-0.69-1.258c-0.331-0.281-0.73-0.422-1.199-0.422
		c-0.708,0-1.284,0.254-1.728,0.762c-0.442,0.508-0.664,1.312-0.664,2.41c0,1.114,0.214,1.925,0.642,2.43
		c0.427,0.505,0.983,0.758,1.672,0.758c0.552,0,1.013-0.169,1.383-0.508C406.792,100.685,407.026,100.164,407.125,99.461z"/>
	<path fill="#909194" d="M409.711,102.5V91.047h1.406v4.109c0.656-0.76,1.483-1.141,2.483-1.141c0.614,0,1.148,0.121,1.603,0.363
		s0.777,0.577,0.973,1.004c0.196,0.427,0.293,1.047,0.293,1.859v5.258h-1.406v-5.258c0-0.703-0.151-1.215-0.456-1.535
		c-0.306-0.32-0.736-0.48-1.294-0.48c-0.416,0-0.809,0.108-1.176,0.324c-0.367,0.216-0.629,0.509-0.785,0.879
		c-0.155,0.37-0.233,0.88-0.233,1.531v4.539L409.711,102.5L409.711,102.5z"/>
	<path fill="#909194" d="M418.609,102.5v-8.297h1.266v1.18c0.609-0.911,1.489-1.367,2.641-1.367c0.5,0,0.959,0.09,1.379,0.27
		c0.42,0.18,0.733,0.416,0.941,0.707c0.208,0.292,0.354,0.638,0.438,1.039c0.052,0.261,0.077,0.716,0.077,1.367v5.102h-1.405v-5.047
		c0-0.573-0.056-1.001-0.164-1.285c-0.109-0.284-0.305-0.511-0.582-0.68c-0.279-0.169-0.605-0.254-0.98-0.254
		c-0.599,0-1.116,0.19-1.551,0.57c-0.435,0.38-0.652,1.102-0.652,2.164v4.531H418.609z"/>
	<path fill="#909194" d="M426.984,98.352c0-1.536,0.427-2.675,1.28-3.414c0.714-0.614,1.583-0.922,2.609-0.922
		c1.141,0,2.073,0.374,2.797,1.121c0.724,0.747,1.086,1.78,1.086,3.098c0,1.067-0.16,1.907-0.479,2.52
		c-0.32,0.613-0.787,1.087-1.398,1.426c-0.612,0.339-1.28,0.508-2.004,0.508c-1.162,0-2.101-0.372-2.816-1.117
		C427.342,100.825,426.984,99.753,426.984,98.352z M428.43,98.352c0,1.063,0.231,1.858,0.695,2.387
		c0.463,0.528,1.047,0.793,1.75,0.793c0.698,0,1.278-0.266,1.742-0.797c0.463-0.531,0.695-1.341,0.695-2.43
		c0-1.026-0.233-1.804-0.699-2.332c-0.466-0.528-1.046-0.793-1.738-0.793c-0.703,0-1.287,0.263-1.75,0.789
		C428.661,96.495,428.43,97.289,428.43,98.352z"/>
	<path fill="#909194" d="M436.375,102.5V91.047h1.406V102.5H436.375z"/>
	<path fill="#909194" d="M439.438,98.352c0-1.536,0.428-2.675,1.281-3.414c0.713-0.614,1.583-0.922,2.609-0.922
		c1.141,0,2.073,0.374,2.797,1.121c0.724,0.747,1.086,1.78,1.086,3.098c0,1.067-0.16,1.907-0.479,2.52
		c-0.32,0.613-0.787,1.087-1.398,1.426c-0.612,0.339-1.28,0.508-2.004,0.508c-1.162,0-2.102-0.372-2.816-1.117
		C439.795,100.825,439.438,99.753,439.438,98.352z M440.883,98.352c0,1.063,0.231,1.858,0.695,2.387
		c0.463,0.528,1.047,0.793,1.75,0.793c0.698,0,1.278-0.266,1.742-0.797c0.463-0.531,0.694-1.341,0.694-2.43
		c0-1.026-0.232-1.804-0.698-2.332c-0.467-0.528-1.047-0.793-1.738-0.793c-0.703,0-1.287,0.263-1.75,0.789
		C441.114,96.495,440.883,97.289,440.883,98.352z"/>
	<path fill="#909194" d="M448.602,103.188l1.367,0.203c0.058,0.422,0.216,0.729,0.478,0.922c0.349,0.261,0.825,0.391,1.43,0.391
		c0.651,0,1.153-0.13,1.508-0.391s0.594-0.625,0.719-1.094c0.073-0.286,0.106-0.888,0.103-1.805
		c-0.615,0.724-1.38,1.086-2.297,1.086c-1.142,0-2.023-0.411-2.648-1.234c-0.625-0.823-0.938-1.81-0.938-2.961
		c0-0.792,0.143-1.522,0.43-2.191c0.286-0.669,0.702-1.187,1.246-1.551c0.544-0.364,1.184-0.547,1.918-0.547
		c0.979,0,1.786,0.396,2.422,1.188v-1h1.297v7.172c0,1.292-0.132,2.207-0.395,2.746c-0.264,0.539-0.681,0.965-1.25,1.277
		c-0.57,0.312-1.272,0.469-2.105,0.469c-0.99,0-1.789-0.224-2.397-0.668C448.878,104.755,448.581,104.083,448.602,103.188z
		 M449.766,98.203c0,1.089,0.217,1.883,0.648,2.383s0.974,0.75,1.625,0.75c0.646,0,1.188-0.249,1.625-0.746
		c0.437-0.497,0.656-1.277,0.656-2.34c0-1.016-0.227-1.781-0.677-2.297c-0.45-0.516-0.993-0.773-1.629-0.773
		c-0.625,0-1.155,0.254-1.594,0.762C449.983,96.45,449.766,97.203,449.766,98.203z"/>
	<path fill="#909194" d="M457.695,105.695l-0.156-1.32c0.307,0.083,0.575,0.125,0.805,0.125c0.313,0,0.563-0.052,0.75-0.156
		c0.188-0.104,0.341-0.25,0.461-0.438c0.088-0.141,0.231-0.489,0.431-1.047c0.025-0.078,0.066-0.192,0.125-0.344l-3.148-8.313h1.516
		l1.728,4.805c0.224,0.609,0.424,1.25,0.602,1.922c0.161-0.646,0.354-1.276,0.578-1.891l1.773-4.836h1.406l-3.156,8.438
		c-0.339,0.911-0.603,1.539-0.789,1.883c-0.25,0.464-0.537,0.804-0.859,1.02c-0.323,0.216-0.708,0.324-1.156,0.324
		C458.331,105.867,458.028,105.811,457.695,105.695z"/>
</g>
<circle fill="#00A9EE" cx="284.479" cy="98" r="2.5"/>
<circle fill="#00A9EE" cx="378.979" cy="98" r="2.5"/>
</svg>
